<mxfile host="app.diagrams.net" modified="2024-03-21T15:20:29.734Z" agent="Mozilla/5.0 (X11; Ubuntu; Linux x86_64; rv:123.0) Gecko/20100101 Firefox/123.0" etag="Y3MJELfizn56ZXv9NypT" version="24.0.7" type="github">
  <diagram id="6a731a19-8d31-9384-78a2-239565b7b9f0" name="Page-1">
    <mxGraphModel dx="3217" dy="1200" grid="1" gridSize="10" guides="1" tooltips="1" connect="1" arrows="1" fold="1" page="1" pageScale="1" pageWidth="827" pageHeight="1169" background="none" math="0" shadow="0">
      <root>
        <mxCell id="0" />
        <mxCell id="1" parent="0" />
        <mxCell id="d1s5xP5k-tzUOM_EIyrr-2261" value="TERRAFORM" style="rounded=1;whiteSpace=wrap;html=1;labelBackgroundColor=none;" parent="1" vertex="1">
          <mxGeometry x="339" y="20" width="150" height="50" as="geometry" />
        </mxCell>
        <mxCell id="d1s5xP5k-tzUOM_EIyrr-2262" value="" style="endArrow=classic;html=1;rounded=0;exitX=0.5;exitY=1;exitDx=0;exitDy=0;labelBackgroundColor=none;fontColor=default;" parent="1" source="d1s5xP5k-tzUOM_EIyrr-2261" edge="1">
          <mxGeometry width="50" height="50" relative="1" as="geometry">
            <mxPoint x="680" y="450" as="sourcePoint" />
            <mxPoint x="414" y="120" as="targetPoint" />
            <Array as="points" />
          </mxGeometry>
        </mxCell>
        <mxCell id="d1s5xP5k-tzUOM_EIyrr-2263" value="--- Provider ---dmacvicar/libvirt" style="rounded=1;whiteSpace=wrap;html=1;labelBackgroundColor=none;" parent="1" vertex="1">
          <mxGeometry x="354" y="120" width="120" height="40" as="geometry" />
        </mxCell>
        <mxCell id="d1s5xP5k-tzUOM_EIyrr-2264" value="" style="endArrow=classic;html=1;rounded=0;exitX=0.5;exitY=1;exitDx=0;exitDy=0;labelBackgroundColor=none;fontColor=default;" parent="1" source="d1s5xP5k-tzUOM_EIyrr-2263" target="d1s5xP5k-tzUOM_EIyrr-2265" edge="1">
          <mxGeometry width="50" height="50" relative="1" as="geometry">
            <mxPoint x="480" y="150" as="sourcePoint" />
            <mxPoint x="414" y="200" as="targetPoint" />
          </mxGeometry>
        </mxCell>
        <mxCell id="d1s5xP5k-tzUOM_EIyrr-2265" value="KVM" style="rounded=1;whiteSpace=wrap;html=1;labelBackgroundColor=none;" parent="1" vertex="1">
          <mxGeometry x="371" y="200" width="84" height="30" as="geometry" />
        </mxCell>
        <mxCell id="d1s5xP5k-tzUOM_EIyrr-2266" value="" style="endArrow=classic;html=1;rounded=0;exitX=0;exitY=1;exitDx=0;exitDy=0;entryX=0.5;entryY=0;entryDx=0;entryDy=0;labelBackgroundColor=none;fontColor=default;" parent="1" source="d1s5xP5k-tzUOM_EIyrr-2265" target="d1s5xP5k-tzUOM_EIyrr-2272" edge="1">
          <mxGeometry width="50" height="50" relative="1" as="geometry">
            <mxPoint x="480" y="230" as="sourcePoint" />
            <mxPoint x="160" y="320" as="targetPoint" />
          </mxGeometry>
        </mxCell>
        <mxCell id="d1s5xP5k-tzUOM_EIyrr-2267" value="" style="endArrow=classic;html=1;rounded=0;exitX=1;exitY=1;exitDx=0;exitDy=0;entryX=0.5;entryY=0;entryDx=0;entryDy=0;labelBackgroundColor=none;fontColor=default;" parent="1" source="d1s5xP5k-tzUOM_EIyrr-2265" target="d1s5xP5k-tzUOM_EIyrr-2273" edge="1">
          <mxGeometry width="50" height="50" relative="1" as="geometry">
            <mxPoint x="440" y="220" as="sourcePoint" />
            <mxPoint x="680" y="320" as="targetPoint" />
          </mxGeometry>
        </mxCell>
        <mxCell id="d1s5xP5k-tzUOM_EIyrr-2268" value="" style="endArrow=classic;html=1;rounded=0;exitX=0.5;exitY=1;exitDx=0;exitDy=0;labelBackgroundColor=none;fontColor=default;" parent="1" source="d1s5xP5k-tzUOM_EIyrr-2265" edge="1">
          <mxGeometry width="50" height="50" relative="1" as="geometry">
            <mxPoint x="440" y="280" as="sourcePoint" />
            <mxPoint x="413" y="320" as="targetPoint" />
          </mxGeometry>
        </mxCell>
        <mxCell id="d1s5xP5k-tzUOM_EIyrr-2275" value="Create VM 1 " style="text;html=1;align=center;verticalAlign=middle;resizable=0;points=[];autosize=1;strokeColor=none;fillColor=none;rotation=-10;labelBackgroundColor=none;" parent="1" vertex="1">
          <mxGeometry x="130" y="240" width="90" height="30" as="geometry" />
        </mxCell>
        <mxCell id="d1s5xP5k-tzUOM_EIyrr-2277" value="Create VM 2" style="text;html=1;align=center;verticalAlign=middle;resizable=0;points=[];autosize=1;strokeColor=none;fillColor=none;rotation=0;labelBackgroundColor=none;" parent="1" vertex="1">
          <mxGeometry x="323" y="260" width="90" height="30" as="geometry" />
        </mxCell>
        <mxCell id="d1s5xP5k-tzUOM_EIyrr-2278" value="Create VM 3" style="text;html=1;align=center;verticalAlign=middle;resizable=0;points=[];autosize=1;strokeColor=none;fillColor=none;rotation=15;labelBackgroundColor=none;" parent="1" vertex="1">
          <mxGeometry x="630" y="240" width="90" height="30" as="geometry" />
        </mxCell>
        <mxCell id="d1s5xP5k-tzUOM_EIyrr-2289" style="edgeStyle=orthogonalEdgeStyle;rounded=0;orthogonalLoop=1;jettySize=auto;html=1;exitX=0;exitY=0;exitDx=0;exitDy=0;labelBackgroundColor=none;fontColor=default;" parent="1" source="d1s5xP5k-tzUOM_EIyrr-2297" target="d1s5xP5k-tzUOM_EIyrr-2283" edge="1">
          <mxGeometry relative="1" as="geometry" />
        </mxCell>
        <mxCell id="d1s5xP5k-tzUOM_EIyrr-2290" style="edgeStyle=orthogonalEdgeStyle;rounded=0;orthogonalLoop=1;jettySize=auto;html=1;exitX=0.5;exitY=0;exitDx=0;exitDy=0;entryX=0.5;entryY=1;entryDx=0;entryDy=0;labelBackgroundColor=none;fontColor=default;" parent="1" source="d1s5xP5k-tzUOM_EIyrr-2300" target="d1s5xP5k-tzUOM_EIyrr-2286" edge="1">
          <mxGeometry relative="1" as="geometry" />
        </mxCell>
        <mxCell id="d1s5xP5k-tzUOM_EIyrr-2291" style="edgeStyle=orthogonalEdgeStyle;rounded=0;orthogonalLoop=1;jettySize=auto;html=1;exitX=1;exitY=0;exitDx=0;exitDy=0;entryX=0.5;entryY=1;entryDx=0;entryDy=0;labelBackgroundColor=none;fontColor=default;" parent="1" source="d1s5xP5k-tzUOM_EIyrr-2301" target="d1s5xP5k-tzUOM_EIyrr-2285" edge="1">
          <mxGeometry relative="1" as="geometry" />
        </mxCell>
        <mxCell id="d1s5xP5k-tzUOM_EIyrr-2287" value="Ansible" style="html=1;whiteSpace=wrap;container=1;recursiveResize=0;collapsible=0;labelBackgroundColor=none;" parent="1" vertex="1">
          <mxGeometry x="333" y="780" width="160" height="70" as="geometry" />
        </mxCell>
        <mxCell id="d1s5xP5k-tzUOM_EIyrr-2288" value="" style="triangle;html=1;whiteSpace=wrap;labelBackgroundColor=none;" parent="d1s5xP5k-tzUOM_EIyrr-2287" vertex="1">
          <mxGeometry x="20" y="20" width="20" height="30" as="geometry" />
        </mxCell>
        <mxCell id="d1s5xP5k-tzUOM_EIyrr-2302" value="" style="edgeStyle=orthogonalEdgeStyle;rounded=0;orthogonalLoop=1;jettySize=auto;html=1;exitX=1;exitY=0;exitDx=0;exitDy=0;entryX=0.5;entryY=1;entryDx=0;entryDy=0;labelBackgroundColor=none;fontColor=default;" parent="1" source="d1s5xP5k-tzUOM_EIyrr-2287" target="d1s5xP5k-tzUOM_EIyrr-2301" edge="1">
          <mxGeometry relative="1" as="geometry">
            <mxPoint x="493" y="780" as="sourcePoint" />
            <mxPoint x="900" y="650" as="targetPoint" />
          </mxGeometry>
        </mxCell>
        <mxCell id="d1s5xP5k-tzUOM_EIyrr-2312" style="edgeStyle=orthogonalEdgeStyle;rounded=0;orthogonalLoop=1;jettySize=auto;html=1;entryX=0.077;entryY=0;entryDx=0;entryDy=0;entryPerimeter=0;" parent="1" source="d1s5xP5k-tzUOM_EIyrr-2301" edge="1" target="JkU8IseP4ThKOWX6Dz-X-2271">
          <mxGeometry relative="1" as="geometry">
            <mxPoint x="880" y="1280" as="targetPoint" />
          </mxGeometry>
        </mxCell>
        <mxCell id="d1s5xP5k-tzUOM_EIyrr-2301" value="" style="shape=image;html=1;verticalLabelPosition=bottom;verticalAlign=top;imageAspect=0;image=img/clipart/Gear_128x128.png;labelBackgroundColor=none;" parent="1" vertex="1">
          <mxGeometry x="660" y="700" width="30" height="30" as="geometry" />
        </mxCell>
        <mxCell id="d1s5xP5k-tzUOM_EIyrr-2303" value="" style="edgeStyle=orthogonalEdgeStyle;rounded=0;orthogonalLoop=1;jettySize=auto;html=1;exitX=0.5;exitY=0;exitDx=0;exitDy=0;entryX=0.5;entryY=1;entryDx=0;entryDy=0;labelBackgroundColor=none;fontColor=default;" parent="1" source="d1s5xP5k-tzUOM_EIyrr-2287" target="d1s5xP5k-tzUOM_EIyrr-2300" edge="1">
          <mxGeometry relative="1" as="geometry">
            <mxPoint x="413" y="780" as="sourcePoint" />
            <mxPoint x="413" y="650" as="targetPoint" />
          </mxGeometry>
        </mxCell>
        <mxCell id="d1s5xP5k-tzUOM_EIyrr-2307" style="edgeStyle=orthogonalEdgeStyle;rounded=0;orthogonalLoop=1;jettySize=auto;html=1;labelBackgroundColor=none;fontColor=default;entryX=0.5;entryY=0;entryDx=0;entryDy=0;" parent="1" source="d1s5xP5k-tzUOM_EIyrr-2300" target="d1s5xP5k-tzUOM_EIyrr-2309" edge="1">
          <mxGeometry relative="1" as="geometry">
            <mxPoint x="420" y="920" as="targetPoint" />
            <Array as="points">
              <mxPoint x="510" y="705" />
              <mxPoint x="510" y="880" />
              <mxPoint x="413" y="880" />
            </Array>
          </mxGeometry>
        </mxCell>
        <mxCell id="d1s5xP5k-tzUOM_EIyrr-2300" value="" style="shape=image;html=1;verticalLabelPosition=bottom;verticalAlign=top;imageAspect=0;image=img/clipart/Gear_128x128.png;labelBackgroundColor=none;" parent="1" vertex="1">
          <mxGeometry x="399" y="690" width="30" height="30" as="geometry" />
        </mxCell>
        <mxCell id="d1s5xP5k-tzUOM_EIyrr-2306" value="" style="edgeStyle=orthogonalEdgeStyle;rounded=0;orthogonalLoop=1;jettySize=auto;html=1;exitX=0;exitY=0;exitDx=0;exitDy=0;labelBackgroundColor=none;fontColor=default;" parent="1" source="d1s5xP5k-tzUOM_EIyrr-2287" target="d1s5xP5k-tzUOM_EIyrr-2297" edge="1">
          <mxGeometry relative="1" as="geometry">
            <mxPoint x="333" y="780" as="sourcePoint" />
            <mxPoint x="-80" y="650" as="targetPoint" />
          </mxGeometry>
        </mxCell>
        <mxCell id="d1s5xP5k-tzUOM_EIyrr-2311" style="edgeStyle=orthogonalEdgeStyle;rounded=0;orthogonalLoop=1;jettySize=auto;html=1;entryX=0.977;entryY=0.049;entryDx=0;entryDy=0;entryPerimeter=0;" parent="1" source="d1s5xP5k-tzUOM_EIyrr-2297" edge="1" target="d1s5xP5k-tzUOM_EIyrr-2313">
          <mxGeometry relative="1" as="geometry">
            <mxPoint x="-40" y="1281.6666666666667" as="targetPoint" />
            <Array as="points">
              <mxPoint x="-40" y="715" />
              <mxPoint x="-40" y="1421" />
            </Array>
          </mxGeometry>
        </mxCell>
        <mxCell id="d1s5xP5k-tzUOM_EIyrr-2297" value="" style="shape=image;html=1;verticalLabelPosition=bottom;verticalAlign=top;imageAspect=0;image=img/clipart/Gear_128x128.png;labelBackgroundColor=none;" parent="1" vertex="1">
          <mxGeometry x="140" y="700" width="30" height="30" as="geometry" />
        </mxCell>
        <mxCell id="d1s5xP5k-tzUOM_EIyrr-2373" value="192.168.1.30" style="group" parent="1" vertex="1" connectable="0">
          <mxGeometry x="-625" y="1400" width="625" height="530" as="geometry" />
        </mxCell>
        <mxCell id="d1s5xP5k-tzUOM_EIyrr-2313" value="" style="rounded=1;whiteSpace=wrap;html=1;labelBackgroundColor=none;" parent="d1s5xP5k-tzUOM_EIyrr-2373" vertex="1">
          <mxGeometry x="-2.765486725663717" width="597.3451327433628" height="429.54248366013076" as="geometry" />
        </mxCell>
        <mxCell id="d1s5xP5k-tzUOM_EIyrr-2316" value="&lt;div&gt;eth0: 10.10.10.30&lt;/div&gt;VXLAN Tunnel Endpoint " style="rounded=0;whiteSpace=wrap;html=1;labelBackgroundColor=none;" parent="d1s5xP5k-tzUOM_EIyrr-2373" vertex="1">
          <mxGeometry x="199.1150442477876" y="415.686274509804" width="199.1150442477876" height="41.568627450980394" as="geometry" />
        </mxCell>
        <mxCell id="d1s5xP5k-tzUOM_EIyrr-2322" value="K8s Workcer Node 1" style="text;html=1;align=center;verticalAlign=middle;resizable=0;points=[];autosize=1;strokeColor=none;fillColor=none;" parent="d1s5xP5k-tzUOM_EIyrr-2373" vertex="1">
          <mxGeometry x="190.81858407079645" width="130" height="30" as="geometry" />
        </mxCell>
        <mxCell id="d1s5xP5k-tzUOM_EIyrr-2352" value="CNI" style="rounded=0;whiteSpace=wrap;html=1;" parent="d1s5xP5k-tzUOM_EIyrr-2373" vertex="1">
          <mxGeometry x="45.00442477876106" y="2.2886274509804068" width="132.7433628318584" height="27.7124183006536" as="geometry" />
        </mxCell>
        <mxCell id="d1s5xP5k-tzUOM_EIyrr-2354" value="Kube-Proxy" style="rounded=0;whiteSpace=wrap;html=1;" parent="d1s5xP5k-tzUOM_EIyrr-2373" vertex="1">
          <mxGeometry x="366.7058407079646" y="-0.0013725490196065948" width="132.7433628318584" height="27.7124183006536" as="geometry" />
        </mxCell>
        <mxCell id="d1s5xP5k-tzUOM_EIyrr-2402" value="" style="rounded=1;whiteSpace=wrap;html=1;" parent="d1s5xP5k-tzUOM_EIyrr-2373" vertex="1">
          <mxGeometry x="22.123893805309734" y="218.23529411764707" width="553.0973451327434" height="114.31372549019609" as="geometry" />
        </mxCell>
        <mxCell id="d1s5xP5k-tzUOM_EIyrr-2403" value="Bridge(cni0):10.244.0.1" style="text;html=1;align=center;verticalAlign=middle;resizable=0;points=[];autosize=1;strokeColor=none;fillColor=none;" parent="d1s5xP5k-tzUOM_EIyrr-2373" vertex="1">
          <mxGeometry x="207.41150442477874" y="270.1960784313726" width="150" height="30" as="geometry" />
        </mxCell>
        <mxCell id="d1s5xP5k-tzUOM_EIyrr-2365" value="Flannel.1" style="rounded=1;whiteSpace=wrap;html=1;" parent="d1s5xP5k-tzUOM_EIyrr-2373" vertex="1">
          <mxGeometry x="237.83185840707966" y="353.3298692810458" width="116.1504424778761" height="41.568627450980394" as="geometry" />
        </mxCell>
        <mxCell id="d1s5xP5k-tzUOM_EIyrr-2391" value="POD2" style="swimlane;startSize=20;horizontal=1;containerType=tree;" parent="d1s5xP5k-tzUOM_EIyrr-2373" vertex="1">
          <mxGeometry x="320.79646017699116" y="83.1372549019608" width="224.5575221238938" height="98.72549019607844" as="geometry" />
        </mxCell>
        <mxCell id="d1s5xP5k-tzUOM_EIyrr-2393" value="eth0:192.168.1.33" style="whiteSpace=wrap;html=1;treeFolding=1;treeMoving=1;newEdgeStyle={&quot;edgeStyle&quot;:&quot;elbowEdgeStyle&quot;,&quot;startArrow&quot;:&quot;none&quot;,&quot;endArrow&quot;:&quot;none&quot;};" parent="d1s5xP5k-tzUOM_EIyrr-2391" vertex="1">
          <mxGeometry x="88.49557522123894" y="51.9607843137255" width="132.7433628318584" height="41.568627450980394" as="geometry" />
        </mxCell>
        <mxCell id="d1s5xP5k-tzUOM_EIyrr-2400" value="POD1" style="swimlane;startSize=20;horizontal=1;containerType=tree;" parent="d1s5xP5k-tzUOM_EIyrr-2373" vertex="1">
          <mxGeometry x="33.1858407079646" y="83.13725490196086" width="224.5575221238938" height="98.72549019607844" as="geometry" />
        </mxCell>
        <mxCell id="d1s5xP5k-tzUOM_EIyrr-2401" value="eth0:192.168.1.42" style="whiteSpace=wrap;html=1;treeFolding=1;treeMoving=1;newEdgeStyle={&quot;edgeStyle&quot;:&quot;elbowEdgeStyle&quot;,&quot;startArrow&quot;:&quot;none&quot;,&quot;endArrow&quot;:&quot;none&quot;};" parent="d1s5xP5k-tzUOM_EIyrr-2400" vertex="1">
          <mxGeometry x="88.49557522123894" y="51.9607843137255" width="132.7433628318584" height="41.568627450980394" as="geometry" />
        </mxCell>
        <mxCell id="d1s5xP5k-tzUOM_EIyrr-2408" value="" style="endArrow=classic;startArrow=classic;html=1;rounded=0;exitX=0.75;exitY=0;exitDx=0;exitDy=0;entryX=0.25;entryY=1;entryDx=0;entryDy=0;" parent="d1s5xP5k-tzUOM_EIyrr-2373" edge="1">
          <mxGeometry width="50" height="50" relative="1" as="geometry">
            <mxPoint x="475.6637168141593" y="218.23529411764707" as="sourcePoint" />
            <mxPoint x="475.6637168141593" y="175.80411764705892" as="targetPoint" />
          </mxGeometry>
        </mxCell>
        <mxCell id="d1s5xP5k-tzUOM_EIyrr-2409" value="" style="endArrow=classic;startArrow=classic;html=1;rounded=0;exitX=0.75;exitY=0;exitDx=0;exitDy=0;entryX=0.25;entryY=1;entryDx=0;entryDy=0;" parent="d1s5xP5k-tzUOM_EIyrr-2373" edge="1">
          <mxGeometry width="50" height="50" relative="1" as="geometry">
            <mxPoint x="190.81858407079645" y="218.23529411764707" as="sourcePoint" />
            <mxPoint x="190.81858407079645" y="175.62745098039218" as="targetPoint" />
          </mxGeometry>
        </mxCell>
        <mxCell id="d1s5xP5k-tzUOM_EIyrr-2456" value="" style="verticalLabelPosition=bottom;verticalAlign=top;html=1;shape=mxgraph.basic.patternFillRect;fillStyle=diagGrid;step=5;fillStrokeWidth=0.2;fillStrokeColor=#dddddd;" parent="d1s5xP5k-tzUOM_EIyrr-2373" vertex="1">
          <mxGeometry x="420.3539823008849" y="218.23529411764707" width="110.61946902654867" height="31.176470588235297" as="geometry" />
        </mxCell>
        <mxCell id="d1s5xP5k-tzUOM_EIyrr-2417" value="" style="verticalLabelPosition=bottom;verticalAlign=top;html=1;shape=mxgraph.basic.patternFillRect;fillStyle=diagGrid;step=5;fillStrokeWidth=0.2;fillStrokeColor=#dddddd;" parent="d1s5xP5k-tzUOM_EIyrr-2373" vertex="1">
          <mxGeometry x="99.5575221238938" y="218.23529411764707" width="110.61946902654867" height="31.176470588235297" as="geometry" />
        </mxCell>
        <mxCell id="JkU8IseP4ThKOWX6Dz-X-2257" value="" style="verticalLabelPosition=bottom;verticalAlign=top;html=1;shape=mxgraph.basic.patternFillRect;fillStyle=diagGrid;step=5;fillStrokeWidth=0.2;fillStrokeColor=#dddddd;" vertex="1" parent="d1s5xP5k-tzUOM_EIyrr-2373">
          <mxGeometry x="240.59734513274336" y="301.37254901960785" width="110.61946902654867" height="31.176470588235297" as="geometry" />
        </mxCell>
        <mxCell id="JkU8IseP4ThKOWX6Dz-X-2259" value="" style="endArrow=classic;startArrow=classic;html=1;rounded=0;entryX=0.25;entryY=1;entryDx=0;entryDy=0;" edge="1" parent="d1s5xP5k-tzUOM_EIyrr-2373">
          <mxGeometry width="50" height="50" relative="1" as="geometry">
            <mxPoint x="296.10619469026545" y="353.33333333333337" as="sourcePoint" />
            <mxPoint x="295.69690265486724" y="332.54901960784315" as="targetPoint" />
          </mxGeometry>
        </mxCell>
        <mxCell id="JkU8IseP4ThKOWX6Dz-X-2260" value="" style="endArrow=classic;startArrow=classic;html=1;rounded=0;entryX=0.25;entryY=1;entryDx=0;entryDy=0;" edge="1" parent="d1s5xP5k-tzUOM_EIyrr-2373">
          <mxGeometry width="50" height="50" relative="1" as="geometry">
            <mxPoint x="296.10619469026545" y="415.686274509804" as="sourcePoint" />
            <mxPoint x="295.69690265486724" y="394.90196078431376" as="targetPoint" />
          </mxGeometry>
        </mxCell>
        <mxCell id="JkU8IseP4ThKOWX6Dz-X-2292" value="encapsulate/decapsulate" style="whiteSpace=wrap;html=1;" vertex="1" parent="d1s5xP5k-tzUOM_EIyrr-2373">
          <mxGeometry x="318.23" y="450" width="80" height="30" as="geometry" />
        </mxCell>
        <mxCell id="JkU8IseP4ThKOWX6Dz-X-2326" value="&lt;div&gt;SNAT&lt;/div&gt;" style="text;html=1;align=center;verticalAlign=middle;resizable=0;points=[];autosize=1;strokeColor=none;fillColor=none;" vertex="1" parent="d1s5xP5k-tzUOM_EIyrr-2373">
          <mxGeometry x="245" y="394.90000000000003" width="50" height="30" as="geometry" />
        </mxCell>
        <mxCell id="JkU8IseP4ThKOWX6Dz-X-2331" value="DNAT" style="text;html=1;align=center;verticalAlign=middle;resizable=0;points=[];autosize=1;strokeColor=none;fillColor=none;" vertex="1" parent="d1s5xP5k-tzUOM_EIyrr-2373">
          <mxGeometry x="301.22" y="394.9000000000001" width="50" height="30" as="geometry" />
        </mxCell>
        <mxCell id="d1s5xP5k-tzUOM_EIyrr-2376" value="" style="group" parent="1" vertex="1" connectable="0">
          <mxGeometry x="234" y="320" width="360" height="330" as="geometry" />
        </mxCell>
        <mxCell id="d1s5xP5k-tzUOM_EIyrr-2269" value="" style="rounded=1;whiteSpace=wrap;html=1;labelBackgroundColor=none;" parent="d1s5xP5k-tzUOM_EIyrr-2376" vertex="1">
          <mxGeometry width="360" height="310" as="geometry" />
        </mxCell>
        <mxCell id="d1s5xP5k-tzUOM_EIyrr-2286" value="eth0: 10.10.10.20" style="rounded=0;whiteSpace=wrap;html=1;labelBackgroundColor=none;" parent="d1s5xP5k-tzUOM_EIyrr-2376" vertex="1">
          <mxGeometry x="119" y="300" width="120" height="30" as="geometry" />
        </mxCell>
        <mxCell id="d1s5xP5k-tzUOM_EIyrr-2377" value="" style="group" parent="1" vertex="1" connectable="0">
          <mxGeometry x="-240" y="320" width="360" height="330" as="geometry" />
        </mxCell>
        <mxCell id="d1s5xP5k-tzUOM_EIyrr-2272" value="" style="rounded=1;whiteSpace=wrap;html=1;labelBackgroundColor=none;" parent="d1s5xP5k-tzUOM_EIyrr-2377" vertex="1">
          <mxGeometry width="360" height="310" as="geometry" />
        </mxCell>
        <mxCell id="d1s5xP5k-tzUOM_EIyrr-2283" value="eth0: 10.10.10.30" style="rounded=0;whiteSpace=wrap;html=1;labelBackgroundColor=none;" parent="d1s5xP5k-tzUOM_EIyrr-2377" vertex="1">
          <mxGeometry x="100" y="300" width="120" height="30" as="geometry" />
        </mxCell>
        <mxCell id="d1s5xP5k-tzUOM_EIyrr-2378" value="" style="group" parent="1" vertex="1" connectable="0">
          <mxGeometry x="720" y="320" width="360" height="330" as="geometry" />
        </mxCell>
        <mxCell id="2257" style="edgeStyle=orthogonalEdgeStyle;curved=1;rounded=0;jumpStyle=none;html=1;exitX=0.75;exitY=0;entryX=0.75;entryY=0;shadow=0;labelBackgroundColor=none;startArrow=none;startFill=0;endArrow=none;endFill=0;endSize=10;jettySize=auto;orthogonalLoop=1;strokeWidth=2;fontFamily=Helvetica;fontSize=25;fontColor=default;align=left;" parent="d1s5xP5k-tzUOM_EIyrr-2378" edge="1">
          <mxGeometry relative="1" as="geometry">
            <mxPoint x="93.74999999999955" y="114" as="sourcePoint" />
            <mxPoint x="93.74999999999955" y="114" as="targetPoint" />
          </mxGeometry>
        </mxCell>
        <mxCell id="d1s5xP5k-tzUOM_EIyrr-2273" value="" style="rounded=1;whiteSpace=wrap;html=1;labelBackgroundColor=none;" parent="d1s5xP5k-tzUOM_EIyrr-2378" vertex="1">
          <mxGeometry width="360" height="310" as="geometry" />
        </mxCell>
        <mxCell id="d1s5xP5k-tzUOM_EIyrr-2285" value="eth0: 10.10.10.40" style="rounded=0;whiteSpace=wrap;html=1;labelBackgroundColor=none;" parent="d1s5xP5k-tzUOM_EIyrr-2378" vertex="1">
          <mxGeometry x="120" y="300" width="120" height="30" as="geometry" />
        </mxCell>
        <mxCell id="d1s5xP5k-tzUOM_EIyrr-2379" value="" style="group" parent="1" vertex="1" connectable="0">
          <mxGeometry x="109" y="910" width="610" height="480" as="geometry" />
        </mxCell>
        <mxCell id="d1s5xP5k-tzUOM_EIyrr-2309" value="" style="rounded=1;whiteSpace=wrap;html=1;labelBackgroundColor=none;verticalAlign=bottom;" parent="d1s5xP5k-tzUOM_EIyrr-2379" vertex="1">
          <mxGeometry width="609.9999999999999" height="432.1212121212121" as="geometry" />
        </mxCell>
        <mxCell id="d1s5xP5k-tzUOM_EIyrr-2321" value="K8s Master Node" style="text;html=1;align=center;verticalAlign=middle;resizable=0;points=[];autosize=1;strokeColor=none;fillColor=none;" parent="d1s5xP5k-tzUOM_EIyrr-2379" vertex="1">
          <mxGeometry x="191.47222222222223" width="120" height="30" as="geometry" />
        </mxCell>
        <mxCell id="d1s5xP5k-tzUOM_EIyrr-2325" value="" style="ellipse;shape=doubleEllipse;whiteSpace=wrap;html=1;" parent="d1s5xP5k-tzUOM_EIyrr-2379" vertex="1">
          <mxGeometry y="24.393939393939394" width="603.2222222222222" height="362.4242424242425" as="geometry" />
        </mxCell>
        <mxCell id="d1s5xP5k-tzUOM_EIyrr-2329" value="etcd" style="shape=cylinder3;whiteSpace=wrap;html=1;boundedLbl=1;backgroundOutline=1;size=15;" parent="d1s5xP5k-tzUOM_EIyrr-2379" vertex="1">
          <mxGeometry x="37.27777777777777" y="149.84848484848487" width="101.66666666666666" height="111.51515151515152" as="geometry" />
        </mxCell>
        <mxCell id="d1s5xP5k-tzUOM_EIyrr-2334" style="edgeStyle=orthogonalEdgeStyle;rounded=0;orthogonalLoop=1;jettySize=auto;html=1;exitX=1;exitY=0.5;exitDx=0;exitDy=0;" parent="d1s5xP5k-tzUOM_EIyrr-2379" source="d1s5xP5k-tzUOM_EIyrr-2330" target="d1s5xP5k-tzUOM_EIyrr-2332" edge="1">
          <mxGeometry relative="1" as="geometry">
            <Array as="points">
              <mxPoint x="467.66666666666663" y="204.9090909090909" />
            </Array>
          </mxGeometry>
        </mxCell>
        <mxCell id="d1s5xP5k-tzUOM_EIyrr-2336" style="edgeStyle=orthogonalEdgeStyle;rounded=0;orthogonalLoop=1;jettySize=auto;html=1;exitX=1;exitY=0.5;exitDx=0;exitDy=0;entryX=0;entryY=0.5;entryDx=0;entryDy=0;" parent="d1s5xP5k-tzUOM_EIyrr-2379" source="d1s5xP5k-tzUOM_EIyrr-2330" target="d1s5xP5k-tzUOM_EIyrr-2331" edge="1">
          <mxGeometry relative="1" as="geometry" />
        </mxCell>
        <mxCell id="d1s5xP5k-tzUOM_EIyrr-2330" value="API Server" style="rounded=1;whiteSpace=wrap;html=1;" parent="d1s5xP5k-tzUOM_EIyrr-2379" vertex="1">
          <mxGeometry x="256.7083333333333" y="181.21212121212125" width="96.58333333333333" height="48.78787878787879" as="geometry" />
        </mxCell>
        <mxCell id="d1s5xP5k-tzUOM_EIyrr-2331" value="Scheduler" style="rounded=1;whiteSpace=wrap;html=1;" parent="d1s5xP5k-tzUOM_EIyrr-2379" vertex="1">
          <mxGeometry x="420.22222222222223" y="242.54545454545456" width="96.58333333333333" height="48.78787878787879" as="geometry" />
        </mxCell>
        <mxCell id="d1s5xP5k-tzUOM_EIyrr-2332" value="&lt;div&gt;Controller&lt;/div&gt;&lt;div&gt;Manager&lt;br&gt;&lt;/div&gt;" style="rounded=1;whiteSpace=wrap;html=1;" parent="d1s5xP5k-tzUOM_EIyrr-2379" vertex="1">
          <mxGeometry x="420.22222222222223" y="125.45454545454547" width="96.58333333333333" height="48.78787878787879" as="geometry" />
        </mxCell>
        <mxCell id="d1s5xP5k-tzUOM_EIyrr-2339" style="edgeStyle=orthogonalEdgeStyle;rounded=0;orthogonalLoop=1;jettySize=auto;html=1;exitX=0;exitY=0.5;exitDx=0;exitDy=0;entryX=1;entryY=0.5;entryDx=0;entryDy=0;entryPerimeter=0;" parent="d1s5xP5k-tzUOM_EIyrr-2379" source="d1s5xP5k-tzUOM_EIyrr-2330" target="d1s5xP5k-tzUOM_EIyrr-2329" edge="1">
          <mxGeometry relative="1" as="geometry" />
        </mxCell>
        <mxCell id="d1s5xP5k-tzUOM_EIyrr-2315" value="&lt;div&gt;eth0: 10.10.10.20&lt;/div&gt;&lt;div&gt;VXLAN Tunnel Endpoint &lt;/div&gt;" style="rounded=0;whiteSpace=wrap;html=1;labelBackgroundColor=none;" parent="d1s5xP5k-tzUOM_EIyrr-2379" vertex="1">
          <mxGeometry x="203.33333333333331" y="418.18181818181824" width="203.33333333333331" height="41.81818181818182" as="geometry" />
        </mxCell>
        <mxCell id="JkU8IseP4ThKOWX6Dz-X-2314" value="encapsulate/decapsulate" style="whiteSpace=wrap;html=1;" vertex="1" parent="d1s5xP5k-tzUOM_EIyrr-2379">
          <mxGeometry x="265" y="450" width="80" height="30" as="geometry" />
        </mxCell>
        <mxCell id="n20Qnz8a9MFwwcU1MF_S-2257" value="&lt;div&gt;Overlay network intre toate 3. &lt;br&gt;&lt;/div&gt;&lt;div&gt;&lt;br&gt;&lt;/div&gt;&lt;div&gt;How is the ip pool shared between the nodes?&lt;/div&gt;&lt;div&gt;cine creaza ovarlay network?&lt;/div&gt;&lt;div&gt;ce face CNI?&lt;/div&gt;&lt;div&gt;ce face Kube Proxy?&lt;/div&gt;&lt;div&gt;cine creeaza network namspace urile de pod?&lt;/div&gt;&lt;div&gt;cine creaaza veth de la pod intre pod si overlay?&lt;/div&gt;&lt;div&gt;DNAT SNAT cine face, cum face?&lt;br&gt;&lt;/div&gt;" style="text;html=1;align=center;verticalAlign=middle;resizable=0;points=[];autosize=1;strokeColor=none;fillColor=none;" parent="1" vertex="1">
          <mxGeometry x="1300" y="740" width="280" height="140" as="geometry" />
        </mxCell>
        <mxCell id="JkU8IseP4ThKOWX6Dz-X-2267" value="" style="endArrow=classic;startArrow=classic;html=1;rounded=0;entryX=1;entryY=1;entryDx=0;entryDy=0;" edge="1" parent="1" source="JkU8IseP4ThKOWX6Dz-X-2272" target="d1s5xP5k-tzUOM_EIyrr-2315">
          <mxGeometry width="50" height="50" relative="1" as="geometry">
            <mxPoint x="1130" y="1510" as="sourcePoint" />
            <mxPoint x="719" y="1370" as="targetPoint" />
            <Array as="points">
              <mxPoint x="720" y="1840" />
              <mxPoint x="530" y="1390" />
            </Array>
          </mxGeometry>
        </mxCell>
        <mxCell id="JkU8IseP4ThKOWX6Dz-X-2269" value="" style="endArrow=classic;startArrow=classic;html=1;rounded=0;entryX=0;entryY=1;entryDx=0;entryDy=0;exitX=1;exitY=1;exitDx=0;exitDy=0;" edge="1" parent="1" source="d1s5xP5k-tzUOM_EIyrr-2316" target="JkU8IseP4ThKOWX6Dz-X-2272">
          <mxGeometry width="50" height="50" relative="1" as="geometry">
            <mxPoint x="-169.99991150442608" y="1753.2549019607845" as="sourcePoint" />
            <mxPoint x="1135.103333333333" y="1526" as="targetPoint" />
          </mxGeometry>
        </mxCell>
        <mxCell id="JkU8IseP4ThKOWX6Dz-X-2270" value="192.168.1.30" style="group" vertex="1" connectable="0" parent="1">
          <mxGeometry x="827" y="1400" width="625" height="530" as="geometry" />
        </mxCell>
        <mxCell id="JkU8IseP4ThKOWX6Dz-X-2271" value="" style="rounded=1;whiteSpace=wrap;html=1;labelBackgroundColor=none;" vertex="1" parent="JkU8IseP4ThKOWX6Dz-X-2270">
          <mxGeometry x="-2.765486725663717" width="597.3451327433628" height="429.54248366013076" as="geometry" />
        </mxCell>
        <mxCell id="JkU8IseP4ThKOWX6Dz-X-2272" value="&lt;div&gt;eth0: 10.10.10.40&lt;/div&gt;VXLAN Tunnel Endpoint " style="rounded=0;whiteSpace=wrap;html=1;labelBackgroundColor=none;" vertex="1" parent="JkU8IseP4ThKOWX6Dz-X-2270">
          <mxGeometry x="199.1150442477876" y="415.686274509804" width="199.1150442477876" height="41.568627450980394" as="geometry" />
        </mxCell>
        <mxCell id="JkU8IseP4ThKOWX6Dz-X-2273" value="K8s Workcer Node 1" style="text;html=1;align=center;verticalAlign=middle;resizable=0;points=[];autosize=1;strokeColor=none;fillColor=none;" vertex="1" parent="JkU8IseP4ThKOWX6Dz-X-2270">
          <mxGeometry x="190.81858407079645" width="130" height="30" as="geometry" />
        </mxCell>
        <mxCell id="JkU8IseP4ThKOWX6Dz-X-2274" value="CNI" style="rounded=0;whiteSpace=wrap;html=1;" vertex="1" parent="JkU8IseP4ThKOWX6Dz-X-2270">
          <mxGeometry x="383.00442477876106" y="1.1486274509804062" width="132.7433628318584" height="27.7124183006536" as="geometry" />
        </mxCell>
        <mxCell id="JkU8IseP4ThKOWX6Dz-X-2275" value="Kube-Proxy" style="rounded=0;whiteSpace=wrap;html=1;" vertex="1" parent="JkU8IseP4ThKOWX6Dz-X-2270">
          <mxGeometry x="42.99584070796463" y="2.2886274509803926" width="132.7433628318584" height="27.7124183006536" as="geometry" />
        </mxCell>
        <mxCell id="JkU8IseP4ThKOWX6Dz-X-2276" value="" style="rounded=1;whiteSpace=wrap;html=1;" vertex="1" parent="JkU8IseP4ThKOWX6Dz-X-2270">
          <mxGeometry x="22.123893805309734" y="218.23529411764707" width="553.0973451327434" height="114.31372549019609" as="geometry" />
        </mxCell>
        <mxCell id="JkU8IseP4ThKOWX6Dz-X-2277" value="Bridge(cni0):10.244.1.0" style="text;html=1;align=center;verticalAlign=middle;resizable=0;points=[];autosize=1;strokeColor=none;fillColor=none;" vertex="1" parent="JkU8IseP4ThKOWX6Dz-X-2270">
          <mxGeometry x="207.41150442477874" y="270.1960784313726" width="150" height="30" as="geometry" />
        </mxCell>
        <mxCell id="JkU8IseP4ThKOWX6Dz-X-2278" value="Flannel.1" style="rounded=1;whiteSpace=wrap;html=1;" vertex="1" parent="JkU8IseP4ThKOWX6Dz-X-2270">
          <mxGeometry x="237.83185840707966" y="353.3298692810458" width="116.1504424778761" height="41.568627450980394" as="geometry" />
        </mxCell>
        <mxCell id="JkU8IseP4ThKOWX6Dz-X-2279" value="POD2" style="swimlane;startSize=20;horizontal=1;containerType=tree;" vertex="1" parent="JkU8IseP4ThKOWX6Dz-X-2270">
          <mxGeometry x="320.79646017699116" y="83.1372549019608" width="224.5575221238938" height="98.72549019607844" as="geometry" />
        </mxCell>
        <mxCell id="JkU8IseP4ThKOWX6Dz-X-2280" value="eth0:192.168.0.34" style="whiteSpace=wrap;html=1;treeFolding=1;treeMoving=1;newEdgeStyle={&quot;edgeStyle&quot;:&quot;elbowEdgeStyle&quot;,&quot;startArrow&quot;:&quot;none&quot;,&quot;endArrow&quot;:&quot;none&quot;};" vertex="1" parent="JkU8IseP4ThKOWX6Dz-X-2279">
          <mxGeometry x="88.49557522123894" y="51.9607843137255" width="132.7433628318584" height="41.568627450980394" as="geometry" />
        </mxCell>
        <mxCell id="JkU8IseP4ThKOWX6Dz-X-2281" value="POD1" style="swimlane;startSize=20;horizontal=1;containerType=tree;" vertex="1" parent="JkU8IseP4ThKOWX6Dz-X-2270">
          <mxGeometry x="33.1858407079646" y="83.13725490196086" width="224.5575221238938" height="98.72549019607844" as="geometry" />
        </mxCell>
        <mxCell id="JkU8IseP4ThKOWX6Dz-X-2282" value="eth0:192.168.0.57" style="whiteSpace=wrap;html=1;treeFolding=1;treeMoving=1;newEdgeStyle={&quot;edgeStyle&quot;:&quot;elbowEdgeStyle&quot;,&quot;startArrow&quot;:&quot;none&quot;,&quot;endArrow&quot;:&quot;none&quot;};" vertex="1" parent="JkU8IseP4ThKOWX6Dz-X-2281">
          <mxGeometry x="88.49557522123894" y="51.9607843137255" width="132.7433628318584" height="41.568627450980394" as="geometry" />
        </mxCell>
        <mxCell id="JkU8IseP4ThKOWX6Dz-X-2283" value="" style="endArrow=classic;startArrow=classic;html=1;rounded=0;exitX=0.75;exitY=0;exitDx=0;exitDy=0;entryX=0.25;entryY=1;entryDx=0;entryDy=0;" edge="1" parent="JkU8IseP4ThKOWX6Dz-X-2270">
          <mxGeometry width="50" height="50" relative="1" as="geometry">
            <mxPoint x="475.6637168141593" y="218.23529411764707" as="sourcePoint" />
            <mxPoint x="475.6637168141593" y="175.80411764705892" as="targetPoint" />
          </mxGeometry>
        </mxCell>
        <mxCell id="JkU8IseP4ThKOWX6Dz-X-2284" value="" style="endArrow=classic;startArrow=classic;html=1;rounded=0;exitX=0.75;exitY=0;exitDx=0;exitDy=0;entryX=0.25;entryY=1;entryDx=0;entryDy=0;" edge="1" parent="JkU8IseP4ThKOWX6Dz-X-2270">
          <mxGeometry width="50" height="50" relative="1" as="geometry">
            <mxPoint x="190.81858407079645" y="218.23529411764707" as="sourcePoint" />
            <mxPoint x="190.81858407079645" y="175.62745098039218" as="targetPoint" />
          </mxGeometry>
        </mxCell>
        <mxCell id="JkU8IseP4ThKOWX6Dz-X-2285" value="" style="verticalLabelPosition=bottom;verticalAlign=top;html=1;shape=mxgraph.basic.patternFillRect;fillStyle=diagGrid;step=5;fillStrokeWidth=0.2;fillStrokeColor=#dddddd;" vertex="1" parent="JkU8IseP4ThKOWX6Dz-X-2270">
          <mxGeometry x="420.3539823008849" y="218.23529411764707" width="110.61946902654867" height="31.176470588235297" as="geometry" />
        </mxCell>
        <mxCell id="JkU8IseP4ThKOWX6Dz-X-2286" value="" style="verticalLabelPosition=bottom;verticalAlign=top;html=1;shape=mxgraph.basic.patternFillRect;fillStyle=diagGrid;step=5;fillStrokeWidth=0.2;fillStrokeColor=#dddddd;" vertex="1" parent="JkU8IseP4ThKOWX6Dz-X-2270">
          <mxGeometry x="99.5575221238938" y="218.23529411764707" width="110.61946902654867" height="31.176470588235297" as="geometry" />
        </mxCell>
        <mxCell id="JkU8IseP4ThKOWX6Dz-X-2287" value="" style="verticalLabelPosition=bottom;verticalAlign=top;html=1;shape=mxgraph.basic.patternFillRect;fillStyle=diagGrid;step=5;fillStrokeWidth=0.2;fillStrokeColor=#dddddd;" vertex="1" parent="JkU8IseP4ThKOWX6Dz-X-2270">
          <mxGeometry x="240.59734513274336" y="301.37254901960785" width="110.61946902654867" height="31.176470588235297" as="geometry" />
        </mxCell>
        <mxCell id="JkU8IseP4ThKOWX6Dz-X-2288" value="" style="endArrow=classic;startArrow=classic;html=1;rounded=0;entryX=0.25;entryY=1;entryDx=0;entryDy=0;" edge="1" parent="JkU8IseP4ThKOWX6Dz-X-2270">
          <mxGeometry width="50" height="50" relative="1" as="geometry">
            <mxPoint x="296.10619469026545" y="353.33333333333337" as="sourcePoint" />
            <mxPoint x="295.69690265486724" y="332.54901960784315" as="targetPoint" />
          </mxGeometry>
        </mxCell>
        <mxCell id="JkU8IseP4ThKOWX6Dz-X-2289" value="" style="endArrow=classic;startArrow=classic;html=1;rounded=0;entryX=0.25;entryY=1;entryDx=0;entryDy=0;" edge="1" parent="JkU8IseP4ThKOWX6Dz-X-2270">
          <mxGeometry width="50" height="50" relative="1" as="geometry">
            <mxPoint x="296.10619469026545" y="415.686274509804" as="sourcePoint" />
            <mxPoint x="295.69690265486724" y="394.90196078431376" as="targetPoint" />
          </mxGeometry>
        </mxCell>
        <mxCell id="JkU8IseP4ThKOWX6Dz-X-2315" value="encapsulate/decapsulate" style="whiteSpace=wrap;html=1;" vertex="1" parent="JkU8IseP4ThKOWX6Dz-X-2270">
          <mxGeometry x="199.12000000000012" y="450" width="80" height="30" as="geometry" />
        </mxCell>
        <mxCell id="JkU8IseP4ThKOWX6Dz-X-2330" value="&lt;div&gt;SNAT&lt;/div&gt;" style="text;html=1;align=center;verticalAlign=middle;resizable=0;points=[];autosize=1;strokeColor=none;fillColor=none;" vertex="1" parent="JkU8IseP4ThKOWX6Dz-X-2270">
          <mxGeometry x="240.5999999999999" y="394.9000000000001" width="50" height="30" as="geometry" />
        </mxCell>
        <mxCell id="JkU8IseP4ThKOWX6Dz-X-2327" value="DNAT" style="text;html=1;align=center;verticalAlign=middle;resizable=0;points=[];autosize=1;strokeColor=none;fillColor=none;" vertex="1" parent="JkU8IseP4ThKOWX6Dz-X-2270">
          <mxGeometry x="303.98" y="394.9000000000001" width="50" height="30" as="geometry" />
        </mxCell>
        <mxCell id="JkU8IseP4ThKOWX6Dz-X-2262" value="" style="endArrow=classic;startArrow=classic;html=1;rounded=0;exitX=1;exitY=0.5;exitDx=0;exitDy=0;entryX=0;entryY=1;entryDx=0;entryDy=0;" edge="1" parent="1" source="d1s5xP5k-tzUOM_EIyrr-2316" target="d1s5xP5k-tzUOM_EIyrr-2315">
          <mxGeometry width="50" height="50" relative="1" as="geometry">
            <mxPoint x="-300" y="1897.57" as="sourcePoint" />
            <mxPoint x="190" y="1530" as="targetPoint" />
            <Array as="points">
              <mxPoint x="30" y="1836" />
            </Array>
          </mxGeometry>
        </mxCell>
        <mxCell id="JkU8IseP4ThKOWX6Dz-X-2319" value="&lt;div&gt;Check ectd to&lt;/div&gt;&lt;div&gt;update iptable&lt;/div&gt;&lt;div&gt;rules for forwarding &lt;br&gt;&lt;/div&gt;&lt;div&gt;requests&lt;br&gt;&lt;/div&gt;" style="ellipse;shape=cloud;whiteSpace=wrap;html=1;" vertex="1" parent="1">
          <mxGeometry x="-280" y="1270" width="190" height="130" as="geometry" />
        </mxCell>
        <mxCell id="JkU8IseP4ThKOWX6Dz-X-2322" value="&lt;div&gt;&lt;font style=&quot;font-size: 11px;&quot;&gt;setting up routes and iptables rules&lt;/font&gt;&lt;/div&gt;&lt;div&gt;&lt;font style=&quot;font-size: 11px;&quot;&gt;&amp;nbsp;to ensure proper routing and&lt;/font&gt;&lt;/div&gt;&lt;div&gt;&lt;font style=&quot;font-size: 11px;&quot;&gt;&amp;nbsp;forwarding of traffic between pods.&lt;/font&gt;&lt;/div&gt;&lt;div&gt;&lt;font style=&quot;font-size: 11px;&quot;&gt;ADD VXLAN overlay.&lt;/font&gt;&lt;/div&gt;&lt;div&gt;&lt;font style=&quot;font-size: 11px;&quot;&gt;setup namespaces and veth for pods&lt;/font&gt;&lt;/div&gt;&lt;div&gt;&lt;font style=&quot;font-size: 11px;&quot;&gt;creates a bridge for inner pods &lt;br&gt;&lt;/font&gt;&lt;/div&gt;&lt;div&gt;&lt;font style=&quot;font-size: 11px;&quot;&gt;&lt;br&gt;&lt;/font&gt;&lt;/div&gt;" style="ellipse;shape=cloud;whiteSpace=wrap;html=1;" vertex="1" parent="1">
          <mxGeometry x="-640" y="1180" width="240" height="230" as="geometry" />
        </mxCell>
        <mxCell id="JkU8IseP4ThKOWX6Dz-X-2324" value="&lt;div&gt;Check ectd to&lt;/div&gt;&lt;div&gt;update iptable&lt;/div&gt;&lt;div&gt;rules for forwarding &lt;br&gt;&lt;/div&gt;&lt;div&gt;requests&lt;br&gt;&lt;/div&gt;" style="ellipse;shape=cloud;whiteSpace=wrap;html=1;" vertex="1" parent="1">
          <mxGeometry x="860" y="1270" width="190" height="130" as="geometry" />
        </mxCell>
        <mxCell id="JkU8IseP4ThKOWX6Dz-X-2325" value="&lt;div&gt;&lt;font style=&quot;font-size: 11px;&quot;&gt;setting up routes and iptables rules&lt;/font&gt;&lt;/div&gt;&lt;div&gt;&lt;font style=&quot;font-size: 11px;&quot;&gt;&amp;nbsp;to ensure proper routing and&lt;/font&gt;&lt;/div&gt;&lt;div&gt;&lt;font style=&quot;font-size: 11px;&quot;&gt;&amp;nbsp;forwarding of traffic between pods.&lt;/font&gt;&lt;/div&gt;&lt;div&gt;&lt;font style=&quot;font-size: 11px;&quot;&gt;ADD VXLAN overlay.&lt;/font&gt;&lt;/div&gt;&lt;div&gt;&lt;font style=&quot;font-size: 11px;&quot;&gt;setup namespaces and veth for pods&lt;/font&gt;&lt;/div&gt;&lt;div&gt;&lt;font style=&quot;font-size: 11px;&quot;&gt;creates a bridge for inner pods &lt;br&gt;&lt;/font&gt;&lt;/div&gt;&lt;div&gt;&lt;font style=&quot;font-size: 11px;&quot;&gt;&lt;br&gt;&lt;/font&gt;&lt;/div&gt;" style="ellipse;shape=cloud;whiteSpace=wrap;html=1;" vertex="1" parent="1">
          <mxGeometry x="1140" y="1180" width="240" height="230" as="geometry" />
        </mxCell>
      </root>
    </mxGraphModel>
  </diagram>
</mxfile>
